<?xml version="1.0" encoding="utf-8"?>
<!-- Generator: Adobe Illustrator 16.0.0, SVG Export Plug-In . SVG Version: 6.00 Build 0)  -->
<!DOCTYPE svg PUBLIC "-//W3C//DTD SVG 1.1//EN" "http://www.w3.org/Graphics/SVG/1.1/DTD/svg11.dtd">
<svg version="1.1" id="Layer_1" xmlns="http://www.w3.org/2000/svg" xmlns:xlink="http://www.w3.org/1999/xlink" x="0px" y="0px"
	 width="204.904px" height="38.704px" viewBox="0 0 204.904 38.704" enable-background="new 0 0 204.904 38.704"
	 xml:space="preserve">
<g>
	<path fill="#19519A" d="M50.894,19.867c-0.669-0.244-1.276-0.669-1.763-1.216c-0.486-0.547-0.729-1.276-0.729-2.188
		c0-0.547,0.122-1.034,0.365-1.52c0.244-0.426,0.608-0.851,1.034-1.155s0.912-0.547,1.459-0.729
		c0.547-0.183,1.156-0.244,1.824-0.244c0.729,0,1.338,0.061,1.946,0.183c0.547,0.121,1.094,0.304,1.581,0.486
		c0.426,0.183,0.608,0.487,0.608,0.852c0,0.243-0.121,0.425-0.304,0.608c-0.182,0.122-0.425,0.244-0.668,0.244
		c-0.122,0-0.243,0-0.365-0.061c-0.912-0.366-1.885-0.609-2.979-0.609c-0.304,0-0.608,0.061-0.851,0.122
		c-0.304,0.061-0.547,0.182-0.791,0.304c-0.243,0.121-0.425,0.304-0.607,0.547c-0.183,0.243-0.243,0.547-0.243,0.851
		c0,0.547,0.182,0.973,0.486,1.216c0.304,0.303,0.669,0.486,0.973,0.607l2.736,1.034c0.851,0.303,1.58,0.79,2.066,1.398
		c0.547,0.607,0.791,1.338,0.791,2.128c0,0.547-0.122,1.095-0.365,1.581c-0.244,0.486-0.548,0.912-0.973,1.276
		s-0.912,0.607-1.459,0.851c-0.547,0.184-1.155,0.305-1.824,0.305c-0.729,0-1.459-0.061-2.067-0.184
		c-0.608-0.121-1.216-0.303-1.763-0.546c-0.365-0.183-0.608-0.426-0.608-0.851c0-0.244,0.061-0.427,0.304-0.608
		c0.182-0.183,0.425-0.243,0.729-0.243h0.183c0.061,0,0.122,0.061,0.182,0.061c0.486,0.183,0.973,0.364,1.459,0.486
		c0.486,0.121,1.034,0.182,1.642,0.182c0.669,0,1.276-0.182,1.763-0.547c0.547-0.364,0.79-0.852,0.79-1.459
		c0-0.547-0.122-1.033-0.425-1.337c-0.304-0.304-0.729-0.608-1.398-0.852L50.894,19.867z M71.686,20.414v1.52
		c0,0.973,0.304,1.763,0.851,2.311c0.608,0.607,1.398,0.912,2.432,0.912c0.608,0,1.155-0.063,1.703-0.244
		c0.547-0.183,1.094-0.304,1.58-0.547c0.122-0.061,0.244-0.061,0.426-0.061c0.243,0,0.486,0.061,0.668,0.243
		c0.183,0.182,0.304,0.364,0.304,0.608c0,0.364-0.182,0.668-0.547,0.789c-0.668,0.305-1.337,0.547-2.006,0.67
		c-0.669,0.121-1.398,0.182-2.128,0.182c-0.79,0-1.52-0.121-2.188-0.365c-0.668-0.243-1.216-0.547-1.702-0.972
		c-0.486-0.427-0.791-0.912-1.094-1.521c-0.244-0.607-0.365-1.276-0.365-2.006v-4.134c0-0.729,0.121-1.398,0.365-2.006
		c0.243-0.608,0.608-1.094,1.094-1.52c0.486-0.426,1.034-0.791,1.702-0.973c0.669-0.243,1.398-0.365,2.188-0.365
		c0.791,0,1.52,0.122,2.128,0.365c0.669,0.243,1.216,0.547,1.642,0.973c0.486,0.425,0.791,0.912,1.094,1.52
		c0.244,0.608,0.365,1.277,0.365,2.006v1.398c0,0.365-0.121,0.669-0.365,0.912c-0.243,0.243-0.608,0.365-0.973,0.365L71.686,20.414
		L71.686,20.414z M78.313,17.617c0-0.973-0.304-1.702-0.852-2.249c-0.608-0.547-1.398-0.791-2.432-0.791
		c-1.034,0-1.824,0.243-2.432,0.791c-0.607,0.547-0.851,1.276-0.851,2.249v1.094h6.566V17.617L78.313,17.617z M85.243,20.414v1.52
		c0,0.973,0.304,1.763,0.851,2.311c0.608,0.607,1.398,0.912,2.432,0.912c0.608,0,1.156-0.063,1.703-0.244
		c0.547-0.183,1.094-0.304,1.581-0.547c0.121-0.061,0.243-0.061,0.425-0.061c0.243,0,0.486,0.061,0.669,0.243
		c0.182,0.182,0.304,0.364,0.304,0.608c0,0.364-0.183,0.668-0.547,0.789c-0.669,0.305-1.337,0.547-2.006,0.67
		c-0.669,0.121-1.398,0.182-2.128,0.182c-0.79,0-1.52-0.121-2.188-0.365c-0.668-0.243-1.215-0.547-1.702-0.972
		c-0.486-0.427-0.791-0.912-1.094-1.521c-0.244-0.607-0.365-1.276-0.365-2.006v-4.134c0-0.729,0.122-1.398,0.365-2.006
		c0.243-0.608,0.607-1.094,1.094-1.52c0.487-0.426,1.034-0.791,1.702-0.973c0.669-0.243,1.398-0.365,2.188-0.365
		c0.791,0,1.521,0.122,2.128,0.365c0.669,0.243,1.216,0.547,1.642,0.973c0.425,0.425,0.791,0.912,1.094,1.52
		c0.244,0.608,0.365,1.277,0.365,2.006v1.398c0,0.365-0.121,0.669-0.365,0.912c-0.243,0.243-0.608,0.365-0.973,0.365L85.243,20.414
		L85.243,20.414z M91.81,17.617c0-0.973-0.304-1.702-0.852-2.249c-0.607-0.547-1.398-0.791-2.432-0.791
		c-1.033,0-1.823,0.243-2.431,0.791c-0.608,0.547-0.852,1.276-0.852,2.249v1.094h6.627L91.81,17.617z M112.449,16.167
		c-0.163-0.324-0.375-0.61-0.627-0.879c-0.244-0.244-0.559-0.468-0.924-0.59c-0.364-0.122-0.729-0.243-1.094-0.243
		c-1.033,0-2.006,0.303-2.857,0.911v10.457c0,0.243-0.061,0.486-0.243,0.668c-0.183,0.184-0.364,0.244-0.608,0.244
		c-0.242,0-0.486-0.061-0.668-0.244c-0.183-0.182-0.243-0.364-0.243-0.668v-9.362c0-0.304-0.062-0.547-0.183-0.791
		c-0.122-0.243-0.305-0.425-0.548-0.607s-0.485-0.304-0.79-0.365c-0.304-0.061-0.608-0.122-0.912-0.122
		c-1.094,0-2.188,0.182-3.162,0.486v10.821c0,0.243-0.061,0.486-0.243,0.668c-0.183,0.184-0.425,0.244-0.669,0.244
		c-0.243,0-0.486-0.061-0.668-0.244c-0.183-0.182-0.244-0.364-0.244-0.668V14.759c0-0.243,0.061-0.486,0.244-0.668
		c0.121-0.244,0.365-0.365,0.608-0.426c0.669-0.243,1.398-0.426,2.067-0.547c0.668-0.121,1.397-0.182,2.188-0.182
		c0.668,0,1.276,0.122,1.823,0.365c0.548,0.243,1.033,0.547,1.398,0.912c0.548-0.365,1.156-0.669,1.824-0.912
		c0.668-0.243,1.338-0.304,2.006-0.304c0.608,0,1.216,0.121,1.824,0.365c0.547,0.243,1.033,0.546,1.459,0.973
		c0.426,0.425,0.791,0.912,1.033,1.459c0.244,0.547,0.365,1.156,0.365,1.763v8.349c0,0.243-0.061,0.487-0.243,0.669
		s-0.426,0.243-0.669,0.243s-0.486-0.062-0.668-0.243c-0.184-0.183-0.244-0.365-0.244-0.669c0,0,0-8.289,0-8.496
		C112.783,16.972,112.611,16.492,112.449,16.167z M61.137,7.748c0.2-0.163,0.484-0.222,0.728-0.222c0.243,0,0.526,0.06,0.708,0.242
		c0.183,0.183,0.304,0.365,0.304,0.668v4.681h3.344c0.243,0,0.487,0.062,0.669,0.244c0.183,0.182,0.305,0.365,0.305,0.608
		s-0.122,0.425-0.305,0.608c-0.182,0.182-0.426,0.243-0.669,0.243h-3.344v8.329c0,0.547,0.183,1.033,0.547,1.337
		c0.366,0.305,0.791,0.486,1.278,0.486c0.182,0,0.486,0,0.79-0.061s0.547-0.061,0.729-0.061c0.182,0,0.425,0.061,0.608,0.242
		c0.182,0.123,0.304,0.366,0.304,0.609c0,0.242-0.061,0.426-0.243,0.547c-0.122,0.182-0.364,0.243-0.608,0.303
		c-0.243,0.063-0.547,0.063-0.851,0.123c-0.305,0-0.547,0.061-0.852,0.061c-0.547,0-1.034-0.061-1.459-0.244
		c-0.486-0.182-0.852-0.425-1.216-0.729c-0.365-0.304-0.608-0.73-0.791-1.155c-0.182-0.426-0.304-0.974-0.304-1.459
		c0,0,0-14.422,0-14.686C60.81,8.099,60.952,7.9,61.137,7.748z"/>
	<path fill="#1A5099" d="M4.392,4.355C2.713,5.764,0.98,7.497,0.276,9.608c-0.813,2.491,0.325,5.037,1.407,7.257
		c1.083,2.275,2.275,4.495,3.304,6.823c0.812,1.841,1.95,4.008,1.679,6.065c-0.217,1.462-0.705,2.87-0.975,4.332
		c-0.217,0.975,0.704,0,1.029-0.271c1.896-1.625,3.954-3.466,4.712-5.956c0.378-1.246,0.162-2.383-0.271-3.574
		c-0.433-1.138-0.92-2.221-1.408-3.358c-1.029-2.275-2.112-4.549-3.195-6.823c-0.433-0.813-0.867-1.679-1.246-2.545
		c-0.378-0.921-0.595-1.896-0.649-2.924c-0.055-0.812-0.055-1.57,0.054-2.383c0.054-0.596,0.217-1.137,0.271-1.733
		C5.041,4.193,4.771,4.085,4.392,4.355L4.392,4.355z M29.194,4.355c-1.679,1.408-3.412,3.141-4.116,5.253
		c-0.813,2.491,0.325,5.037,1.408,7.257c1.083,2.275,2.274,4.495,3.304,6.823c0.813,1.841,1.95,4.008,1.679,6.065
		c-0.216,1.462-0.704,2.87-0.975,4.332c-0.217,0.975,0.704,0,1.029-0.271c1.896-1.625,3.953-3.466,4.711-5.956
		c0.379-1.246,0.163-2.383-0.271-3.574c-0.433-1.138-0.921-2.221-1.408-3.358c-1.028-2.275-2.112-4.549-3.195-6.823
		c-0.433-0.813-0.866-1.679-1.246-2.545c-0.379-0.921-0.595-1.896-0.65-2.924c-0.054-0.812-0.054-1.57,0.055-2.383
		c0.054-0.596,0.217-1.137,0.271-1.733C29.844,4.193,29.573,4.085,29.194,4.355L29.194,4.355z"/>
	<path fill="#4BA2F2" d="M16.413,0.241c-1.895,1.57-3.953,3.465-5.09,5.686c-0.812,1.57-0.92,3.195-0.487,4.82
		c0.542,1.949,1.3,3.899,2.112,5.794c1.571,3.628,3.628,7.04,5.145,10.722c0.542,1.3,1.137,2.763,1.245,4.224
		c0.109,1.787-0.487,3.684-0.974,5.361c-0.108,0.488-0.434,1.139-0.379,1.625c0.054,0.379,0.271,0.217,0.487,0.055
		c0.921-0.705,1.841-1.516,2.654-2.329c2.22-2.112,4.765-4.929,4.549-8.231c-0.108-1.354-0.758-2.654-1.3-3.898
		c-0.596-1.463-1.246-2.871-1.895-4.279c-1.191-2.653-2.438-5.252-3.737-7.852c-0.434-0.921-0.975-1.788-1.3-2.708
		c-0.487-1.245-0.704-2.545-0.758-3.844c-0.055-0.975,0-2.004,0.108-2.979c0.054-0.649,0.271-1.246,0.271-1.895
		C17.226-0.085,16.9-0.139,16.413,0.241L16.413,0.241z"/>
	<g>
		<path fill="#4BA2F2" d="M123.477,14.742c0-0.271,0.082-0.516,0.244-0.732c0.163-0.217,0.371-0.371,0.625-0.461
			c1.283-0.452,2.648-0.678,4.095-0.678c0.741,0,1.415,0.122,2.021,0.366c0.606,0.244,1.126,0.583,1.561,1.017
			c0.434,0.434,0.768,0.954,1.003,1.56c0.235,0.606,0.353,1.28,0.353,2.021v4.204c0,0.742-0.117,1.416-0.353,2.021
			c-0.235,0.606-0.569,1.125-1.003,1.56c-0.435,0.435-0.954,0.772-1.561,1.018c-0.605,0.243-1.279,0.366-2.021,0.366
			c-0.561,0-1.103-0.072-1.627-0.217s-1.022-0.344-1.492-0.598v5.67c0,0.252-0.091,0.47-0.271,0.65
			c-0.182,0.181-0.398,0.271-0.651,0.271c-0.254,0-0.471-0.091-0.651-0.271s-0.271-0.398-0.271-0.65V14.742z M131.533,17.698
			c0-0.977-0.271-1.74-0.814-2.292s-1.301-0.827-2.278-0.827c-1.048,0-2.089,0.154-3.119,0.461v9.167
			c0.415,0.398,0.896,0.679,1.438,0.842c0.541,0.162,1.102,0.244,1.681,0.244c0.978,0,1.735-0.275,2.278-0.828
			c0.543-0.551,0.814-1.314,0.814-2.291V17.698z"/>
		<path fill="#4BA2F2" d="M136.768,16.613c0-0.56,0.096-1.071,0.285-1.533c0.189-0.46,0.442-0.854,0.76-1.18
			c0.316-0.325,0.691-0.579,1.125-0.759s0.896-0.271,1.383-0.271c0.615,0,1.267,0.072,1.953,0.217
			c0.217,0.037,0.395,0.145,0.529,0.326c0.137,0.181,0.203,0.371,0.203,0.57c0,0.253-0.09,0.461-0.271,0.624
			c-0.181,0.163-0.398,0.244-0.651,0.244c-0.072,0-0.145-0.009-0.217-0.026c-0.072-0.018-0.154-0.037-0.244-0.055
			c-0.217-0.036-0.43-0.068-0.638-0.095c-0.208-0.027-0.429-0.041-0.665-0.041c-0.47,0-0.872,0.167-1.206,0.502
			c-0.335,0.334-0.503,0.8-0.503,1.397v9.548c0,0.252-0.09,0.47-0.271,0.65c-0.181,0.18-0.397,0.271-0.651,0.271
			c-0.252,0-0.47-0.092-0.65-0.271c-0.181-0.181-0.271-0.398-0.271-0.65V16.613z"/>
		<path fill="#4BA2F2" d="M155.05,21.767c0,0.777-0.128,1.487-0.38,2.129c-0.254,0.642-0.606,1.194-1.059,1.655
			c-0.451,0.461-0.999,0.818-1.641,1.07c-0.643,0.254-1.352,0.381-2.129,0.381s-1.488-0.127-2.129-0.381
			c-0.643-0.252-1.19-0.609-1.642-1.07c-0.452-0.461-0.805-1.014-1.058-1.655c-0.254-0.642-0.38-1.352-0.38-2.129v-3.662
			c0-0.777,0.126-1.487,0.38-2.129c0.253-0.642,0.605-1.194,1.058-1.655c0.451-0.461,0.999-0.818,1.642-1.071
			c0.641-0.253,1.352-0.38,2.129-0.38s1.486,0.127,2.129,0.38c0.642,0.253,1.189,0.61,1.641,1.071
			c0.452,0.461,0.805,1.013,1.059,1.655c0.252,0.642,0.38,1.352,0.38,2.129V21.767z M153.205,17.969
			c0-1.067-0.295-1.899-0.882-2.496c-0.588-0.596-1.415-0.895-2.481-0.895c-1.067,0-1.895,0.298-2.482,0.895
			c-0.588,0.597-0.881,1.429-0.881,2.496v3.933c0,1.067,0.293,1.898,0.881,2.495s1.415,0.896,2.482,0.896
			c1.066,0,1.894-0.299,2.481-0.896c0.587-0.597,0.882-1.428,0.882-2.495V17.969z"/>
		<path fill="#4BA2F2" d="M158.928,13.792c0-0.253,0.091-0.47,0.271-0.651s0.398-0.271,0.651-0.271s0.47,0.091,0.65,0.271
			s0.272,0.398,0.272,0.651v13.915c0,0.633-0.092,1.234-0.272,1.804s-0.433,1.075-0.759,1.519s-0.724,0.814-1.193,1.112
			c-0.471,0.298-0.986,0.501-1.547,0.61c-0.09,0.018-0.148,0.027-0.176,0.027s-0.059,0-0.096,0c-0.199,0-0.393-0.078-0.582-0.23
			c-0.19-0.154-0.285-0.376-0.285-0.664c0-0.199,0.063-0.381,0.189-0.543c0.127-0.162,0.299-0.263,0.516-0.299
			c0.76-0.181,1.343-0.552,1.75-1.111c0.406-0.562,0.609-1.275,0.609-2.144V13.792z M159.851,9.913
			c-0.344,0-0.634-0.122-0.868-0.366s-0.353-0.538-0.353-0.881s0.118-0.633,0.353-0.868c0.234-0.235,0.524-0.353,0.868-0.353
			c0.343,0,0.633,0.118,0.868,0.353c0.234,0.235,0.353,0.525,0.353,0.868s-0.118,0.637-0.353,0.881
			C160.483,9.791,160.193,9.913,159.851,9.913z"/>
		<path fill="#4BA2F2" d="M166.035,20.519v1.519c0,0.977,0.275,1.764,0.827,2.36s1.315,0.896,2.292,0.896
			c0.543,0,1.07-0.072,1.586-0.217s1.018-0.326,1.506-0.543c0.127-0.055,0.253-0.082,0.38-0.082c0.253,0,0.47,0.082,0.651,0.245
			c0.18,0.162,0.271,0.37,0.271,0.624c0,0.379-0.172,0.65-0.515,0.813c-0.615,0.308-1.244,0.528-1.885,0.664
			c-0.643,0.136-1.308,0.204-1.994,0.204c-0.742,0-1.42-0.123-2.034-0.366c-0.615-0.245-1.14-0.583-1.573-1.018
			c-0.435-0.435-0.77-0.953-1.004-1.56c-0.235-0.605-0.353-1.279-0.353-2.021v-4.204c0-0.741,0.117-1.415,0.353-2.021
			c0.234-0.605,0.569-1.125,1.004-1.56c0.434-0.434,0.958-0.773,1.573-1.017c0.614-0.244,1.292-0.366,2.034-0.366
			c0.74,0,1.414,0.122,2.021,0.366c0.605,0.244,1.126,0.583,1.56,1.017c0.435,0.434,0.769,0.954,1.004,1.56
			c0.234,0.606,0.353,1.28,0.353,2.021v1.411c0,0.362-0.122,0.664-0.366,0.909c-0.244,0.244-0.547,0.366-0.908,0.366H166.035z
			 M172.246,17.698c0-0.977-0.271-1.74-0.814-2.292c-0.541-0.552-1.301-0.827-2.277-0.827s-1.74,0.275-2.292,0.827
			s-0.827,1.315-0.827,2.292v1.112h6.211V17.698z"/>
		<path fill="#4BA2F2" d="M176.803,17.833c0-0.741,0.117-1.415,0.353-2.021c0.235-0.605,0.569-1.125,1.005-1.56
			c0.434-0.434,0.957-0.773,1.572-1.017c0.614-0.244,1.293-0.366,2.034-0.366c1.248,0,2.432,0.271,3.554,0.814
			c0.343,0.181,0.516,0.452,0.516,0.813c0,0.254-0.092,0.461-0.271,0.624c-0.182,0.163-0.398,0.245-0.651,0.245
			c-0.146,0-0.28-0.027-0.406-0.082c-0.435-0.217-0.882-0.388-1.343-0.515c-0.461-0.126-0.928-0.19-1.397-0.19
			c-0.977,0-1.74,0.275-2.292,0.827c-0.551,0.552-0.827,1.315-0.827,2.292v4.476c0,0.977,0.276,1.74,0.827,2.291
			c0.552,0.553,1.315,0.828,2.292,0.828c0.47,0,0.94-0.063,1.411-0.19c0.47-0.126,0.912-0.288,1.329-0.487
			c0.144-0.072,0.279-0.109,0.406-0.109c0.253,0,0.47,0.082,0.651,0.244c0.18,0.163,0.271,0.371,0.271,0.624
			c0,0.38-0.173,0.651-0.516,0.813c-1.122,0.543-2.306,0.814-3.554,0.814c-0.741,0-1.42-0.123-2.034-0.366
			c-0.615-0.245-1.139-0.583-1.572-1.018c-0.436-0.435-0.77-0.953-1.005-1.56c-0.235-0.605-0.353-1.279-0.353-2.021V17.833z"/>
		<path fill="#4BA2F2" d="M188.548,8.367c0-0.253,0.09-0.47,0.271-0.651c0.181-0.18,0.398-0.271,0.651-0.271s0.47,0.091,0.651,0.271
			c0.181,0.182,0.271,0.398,0.271,0.651v4.774h3.119c0.253,0,0.465,0.086,0.637,0.258s0.258,0.384,0.258,0.637
			c0,0.253-0.086,0.461-0.258,0.624s-0.384,0.244-0.637,0.244h-3.119v8.436c0,0.578,0.166,1.035,0.502,1.369
			c0.334,0.335,0.736,0.502,1.207,0.502c0.198,0,0.451-0.018,0.76-0.055c0.307-0.035,0.532-0.054,0.678-0.054
			c0.198,0,0.393,0.077,0.583,0.23c0.189,0.154,0.284,0.366,0.284,0.638c0,0.217-0.067,0.412-0.203,0.584s-0.321,0.274-0.556,0.312
			c-0.254,0.036-0.512,0.067-0.773,0.095s-0.52,0.041-0.772,0.041c-0.488,0-0.949-0.092-1.384-0.271
			c-0.435-0.181-0.81-0.434-1.126-0.76c-0.316-0.325-0.569-0.719-0.759-1.18c-0.19-0.461-0.285-0.963-0.285-1.506V8.367z"/>
		<path fill="#4BA2F2" d="M198.801,20.003c-0.634-0.271-1.186-0.673-1.655-1.207c-0.47-0.533-0.705-1.279-0.705-2.238
			c0-0.56,0.117-1.066,0.353-1.519c0.235-0.452,0.552-0.841,0.95-1.167c0.397-0.325,0.862-0.574,1.396-0.746
			c0.533-0.171,1.099-0.258,1.695-0.258c0.669,0,1.271,0.064,1.804,0.19c0.533,0.127,1.035,0.29,1.506,0.488
			c0.379,0.181,0.569,0.471,0.569,0.868c0,0.253-0.091,0.457-0.271,0.61c-0.181,0.153-0.397,0.23-0.651,0.23
			c-0.107,0-0.227-0.027-0.352-0.082c-0.851-0.397-1.791-0.596-2.821-0.596c-0.271,0-0.543,0.036-0.813,0.108
			c-0.271,0.072-0.521,0.181-0.746,0.326c-0.227,0.145-0.412,0.339-0.557,0.583s-0.217,0.538-0.217,0.882
			c0,0.542,0.148,0.958,0.447,1.247c0.299,0.29,0.602,0.498,0.908,0.625l2.551,1.031c0.813,0.325,1.469,0.8,1.967,1.424
			c0.496,0.624,0.746,1.353,0.746,2.184c0,0.56-0.109,1.085-0.326,1.573s-0.52,0.913-0.909,1.274
			c-0.389,0.362-0.85,0.647-1.383,0.854c-0.534,0.208-1.108,0.313-1.722,0.313c-0.706,0-1.348-0.068-1.927-0.204
			s-1.13-0.329-1.654-0.583c-0.362-0.162-0.543-0.443-0.543-0.841c0-0.253,0.087-0.461,0.258-0.624
			c0.172-0.162,0.394-0.244,0.665-0.244c0.072,0,0.135,0.01,0.189,0.027c0.055,0.019,0.117,0.045,0.19,0.082
			c0.434,0.199,0.89,0.361,1.37,0.487c0.479,0.127,0.989,0.19,1.531,0.19c0.633,0,1.193-0.177,1.682-0.529
			c0.489-0.353,0.732-0.846,0.732-1.479c0-0.578-0.14-1.03-0.42-1.355c-0.281-0.326-0.71-0.615-1.288-0.868L198.801,20.003z"/>
	</g>
</g>
</svg>
