<?xml version="1.0" encoding="UTF-8" standalone="no"?>
<!-- Created with Inkscape (http://www.inkscape.org/) -->

<svg
   xmlns:dc="http://purl.org/dc/elements/1.1/"
   xmlns:cc="http://creativecommons.org/ns#"
   xmlns:rdf="http://www.w3.org/1999/02/22-rdf-syntax-ns#"
   xmlns:svg="http://www.w3.org/2000/svg"
   xmlns="http://www.w3.org/2000/svg"
   xmlns:sodipodi="http://sodipodi.sourceforge.net/DTD/sodipodi-0.dtd"
   xmlns:inkscape="http://www.inkscape.org/namespaces/inkscape"
   id="svg2"
   version="1.1"
   inkscape:version="0.48.4 r9939"
   width="92.070465"
   height="97.379906"
   xml:space="preserve"
   sodipodi:docname="steemit logo.svg"><metadata
     id="metadata8"><rdf:RDF><cc:Work
         rdf:about=""><dc:format>image/svg+xml</dc:format><dc:type
           rdf:resource="http://purl.org/dc/dcmitype/StillImage" /><dc:title></dc:title></cc:Work></rdf:RDF></metadata><defs
     id="defs6" /><sodipodi:namedview
     pagecolor="#ffffff"
     bordercolor="#666666"
     borderopacity="1"
     objecttolerance="10"
     gridtolerance="10"
     guidetolerance="10"
     inkscape:pageopacity="0"
     inkscape:pageshadow="2"
     inkscape:window-width="1855"
     inkscape:window-height="1056"
     id="namedview4"
     showgrid="false"
     inkscape:zoom="3.7677159"
     inkscape:cx="-35.639634"
     inkscape:cy="33.28784"
     inkscape:window-x="65"
     inkscape:window-y="24"
     inkscape:window-maximized="1"
     inkscape:current-layer="g12"
     fit-margin-top="0"
     fit-margin-left="0"
     fit-margin-right="0"
     fit-margin-bottom="0" /><g
     id="g10"
     inkscape:groupmode="layer"
     inkscape:label="steemit 60x50"
     transform="matrix(1.25,0,0,-1.25,-59.919395,157.5255)"><g
       id="g12"><g
         id="g3013"><path
           id="path14"
           style="fill:#ffffff;fill-opacity:1;fill-rule:evenodd;stroke:none"
           d="m 84.3715,48.1201 c 1.084,-0.0544 1.6688,0.5136 2.2904,1.0474 l 5.4678,5.1412 c 1.436,1.4533 5.0283,6.1866 6.0446,7.8792 2.4242,4.0374 2.2413,6.093 0.7942,10.94 -2.2464,7.524 -9.4266,21.852 -12.9342,29.0585 -1.5137,3.1102 -3.1365,6.5682 -3.537,10.3737 -0.2481,2.3587 -0.1993,4.5493 -9e-4,6.906 0.1729,2.0492 0.7642,4.5188 0.6182,6.5543 -2.3558,-0.2869 -6.6186,-4.9453 -7.8188,-6.2532 -2.1327,-2.3244 -4.3384,-5.0967 -5.4314,-8.5003 -1.7739,-5.5221 3.5617,-17.0501 5.6948,-21.541 2.9965,-6.3079 6.2546,-12.4804 8.9714,-18.879 2.8666,-6.7519 3.1507,-9.8825 0.9875,-17.2293 -0.3656,-1.2421 -1.6599,-4.3818 -1.1466,-5.4975"
           inkscape:connector-curvature="0" /><path
           id="path16"
           style="fill:#ffffff;fill-opacity:1;fill-rule:evenodd;stroke:none"
           d="m 58.6037,117.6231 c -2.4718,-0.529 -7.107,-5.7853 -8.5577,-7.9651 -0.7603,-1.1424 -1.3978,-2.3139 -1.829,-3.6953 -1.4051,-4.5025 2.8233,-13.0765 4.4595,-16.7964 2.2303,-5.0709 4.7696,-9.7004 7.0427,-14.8385 1.2892,-2.914 2.1824,-5.381 1.7529,-9.0592 -0.1822,-1.5608 -2.2323,-8.2712 -1.8428,-8.6868 0.963,-1.0276 7.4087,6.3128 8.35,7.5107 3.6508,4.646 4.7248,6.4936 3.1105,11.8698 -2.0293,6.758 -7.1113,16.418 -10.1177,22.8274 -5.2727,11.2416 -1.9267,11.1894 -2.3684,18.8334"
           inkscape:connector-curvature="0" /><path
           id="path18"
           style="fill:#ffffff;fill-opacity:1;fill-rule:evenodd;stroke:none"
           d="m 109.1871,56.5724 c 2.4098,-0.3818 9.2835,8.2588 10.8865,10.9063 1.9205,3.1723 1.8675,4.8592 0.6849,8.6437 -3.1323,10.0219 -12.2358,24.7122 -12.911,30.8418 -0.4547,4.127 0.6551,7.1935 0.4694,10.6526 -2.829,-0.5502 -9.1922,-7.6172 -10.3983,-11.6348 -1.313,-4.373 2.7898,-13.3319 4.4801,-16.8259 2.3718,-4.9019 4.8677,-9.7982 7.0396,-14.8391 1.2668,-2.9406 2.162,-5.1307 1.7841,-8.8168 -0.2936,-2.8613 -2.0687,-6.8704 -2.0353,-8.9278"
           inkscape:connector-curvature="0" /></g></g></g></svg>